<svg xmlns="http://www.w3.org/2000/svg" viewBox="0 0 50 50"><defs><style>.cls-1{fill:purple;}.cls-2{fill:#fff;}.cls-3{fill:#010101;opacity:0.15;}</style></defs><title>Recurso 27</title><g id="Capa_2" data-name="Capa 2"><g id="Layer_2" data-name="Layer 2"><path class="cls-1" d="M50,25c0,.38,0,.75,0,1.12,0,.07,0,.14,0,.22l-.06.84A25,25,0,0,1,27,49.92c-.28,0-.56,0-.85,0s-.73,0-1.1,0h-.06A25,25,0,1,1,50,25Z"/><path class="cls-2" d="M38.27,15.08h-2c.42.16.84.34,1.25.54a.64.64,0,0,1,.35.54v17a.34.34,0,0,1-.34.36.41.41,0,0,1-.19-.05,13.82,13.82,0,0,0-12,0,.34.34,0,0,1-.31,0,.35.35,0,0,1-.14,0,.45.45,0,0,1-.19-.05,13.82,13.82,0,0,0-12,0,.35.35,0,0,1-.53-.31v-17a.62.62,0,0,1,.35-.54c.41-.2.83-.38,1.25-.54h-2a1.09,1.09,0,0,0-1.08,1.08v17a1.08,1.08,0,0,0,1.08,1.07H23.81a1.21,1.21,0,0,0,2.38,0H38.27a1.08,1.08,0,0,0,1.08-1.07v-17A1.09,1.09,0,0,0,38.27,15.08Z"/><path class="cls-2" d="M12.69,16.44V32.15a.44.44,0,0,0,.2.38.42.42,0,0,0,.26.08.57.57,0,0,0,.18,0,14.31,14.31,0,0,1,10.66,0,.57.57,0,0,0,.18,0,.42.42,0,0,0,.26-.08.47.47,0,0,0,.2-.38V16.44a.45.45,0,0,0-.27-.42A13.52,13.52,0,0,0,13,16,.45.45,0,0,0,12.69,16.44Zm10.54,2.69a.41.41,0,0,1-.55.2,9.72,9.72,0,0,0-8,0,.33.33,0,0,1-.17,0,.42.42,0,0,1-.38-.24.41.41,0,0,1,.21-.55,10.46,10.46,0,0,1,8.72,0A.41.41,0,0,1,23.23,19.13ZM14.3,24.88a10.46,10.46,0,0,1,8.72,0,.41.41,0,0,1,.21.55.42.42,0,0,1-.55.21,9.65,9.65,0,0,0-8,0,.47.47,0,0,1-.17,0,.42.42,0,0,1-.38-.24A.41.41,0,0,1,14.3,24.88Zm0-3.15a10.46,10.46,0,0,1,8.72,0,.41.41,0,0,1,.21.55.42.42,0,0,1-.55.21,9.65,9.65,0,0,0-8,0,.47.47,0,0,1-.17,0,.42.42,0,0,1-.38-.24A.41.41,0,0,1,14.3,21.73Zm0,6.3A10.46,10.46,0,0,1,23,28a.41.41,0,0,1,.21.55.42.42,0,0,1-.55.21,9.65,9.65,0,0,0-8,0,.47.47,0,0,1-.17,0,.42.42,0,0,1-.38-.24A.41.41,0,0,1,14.3,28Z"/><path class="cls-2" d="M25.57,32.53a.42.42,0,0,0,.26.08.57.57,0,0,0,.18,0,14.31,14.31,0,0,1,10.66,0,.57.57,0,0,0,.18,0,.42.42,0,0,0,.26-.08.47.47,0,0,0,.2-.38V16.44A.45.45,0,0,0,37,16a13.52,13.52,0,0,0-11.4,0,.45.45,0,0,0-.27.42V32.15A.44.44,0,0,0,25.57,32.53Zm10.13-14a.42.42,0,0,1,.21.55.41.41,0,0,1-.55.2,9.72,9.72,0,0,0-8,0,.38.38,0,0,1-.17,0,.42.42,0,0,1-.38-.24.41.41,0,0,1,.2-.55A10.48,10.48,0,0,1,35.7,18.58ZM27,24.88a10.48,10.48,0,0,1,8.73,0,.42.42,0,1,1-.34.76,9.65,9.65,0,0,0-8,0l-.17,0a.42.42,0,0,1-.38-.24A.41.41,0,0,1,27,24.88Zm0-3.15a10.48,10.48,0,0,1,8.73,0,.42.42,0,1,1-.34.76,9.65,9.65,0,0,0-8,0l-.17,0a.42.42,0,0,1-.38-.24A.41.41,0,0,1,27,21.73ZM27,28a10.48,10.48,0,0,1,8.73,0,.42.42,0,0,1-.34.76,9.65,9.65,0,0,0-8,0l-.17,0a.42.42,0,0,1-.38-.24A.41.41,0,0,1,27,28Z"/><path class="cls-3" d="M50,26.34l-.06.84A25,25,0,0,1,27,49.92L11.08,34.05a1.06,1.06,0,0,0,.65.22H23.81a1.21,1.21,0,0,0,2.38,0H38.27a1.08,1.08,0,0,0,1.08-1.08v-17a1.12,1.12,0,0,0-.25-.69Z"/></g></g></svg>